<?xml version="1.0" standalone="no"?>
<!DOCTYPE svg PUBLIC "-//W3C//DTD SVG 20010904//EN"
 "http://www.w3.org/TR/2001/REC-SVG-20010904/DTD/svg10.dtd">
<svg version="1.0" xmlns="http://www.w3.org/2000/svg"
 width="282.000000pt" height="282.000000pt" viewBox="0 0 282.000000 282.000000"
 preserveAspectRatio="xMidYMid meet">
<metadata>
Created by potrace 1.11, written by Peter Selinger 2001-2013
</metadata>
<g transform="translate(0.000000,282.000000) scale(0.100000,-0.100000)"
fill="#000000" stroke="none">
<path d="M1301 2129 c-224 -41 -412 -214 -471 -435 -27 -101 -22 -265 12 -356
46 -123 84 -171 331 -418 l237 -238 236 236 c247 247 291 303 335 427 30 84
35 254 10 345 -27 101 -85 202 -156 275 -31 32 -128 97 -175 118 -106 47 -252
65 -359 46z"/>
</g>
</svg>
