<svg xmlns="http://www.w3.org/2000/svg" viewBox="0 0 117.34 141.34"><defs><style>.cls-1{fill:#231f20;}.cls-2{fill:#fff;}.cls-3{fill:#616971;}.cls-4{fill:#999;}.cls-5{fill:#d1d2d3;}.cls-6{fill:#ddb436;}</style></defs><title>[MED - TRIM] - Icon</title><g id="ART_LAYER" data-name="ART LAYER"><polygon points="76.48 39.32 76.36 39.2 76.48 39.32 76.48 39.32"/><polygon points="101.43 64.26 77.55 40.39 101.94 64.77 101.94 64.77 101.43 64.26"/><path class="cls-1" d="M94.25,13.45a57.34,57.34,0,0,0-71.14,0C-3.93,35-5.31,75.07,18.72,99.1c0,0,40,39.91,40,39.91L98.61,99.1C122.64,75.08,121.27,35,94.25,13.45Zm11.13,47.64c0,.23,0,.45-.06.7h0c-.06.82-.15,1.65-.26,2.47a2.36,2.36,0,0,1,0,.29c-.06.47-.13.94-.21,1.39,0,.09,0,.2,0,.29-.08.38-.16.75-.23,1.13v0c0,.29-.12.57-.18.86s-.14.64-.22,1a.57.57,0,0,0,0,.15l-.36,1.37c0,.11-.08.23-.11.35-.12.44-.25.88-.39,1.31s-.24.75-.38,1.13-.29.83-.44,1.24-.33.84-.5,1.24c-.24.6-.5,1.19-.77,1.76s-.42.94-.65,1.41-.38.71-.58,1.06-.42.79-.65,1.18-.39.7-.6,1-.52.83-.79,1.24-.38.59-.58.88c-.46.7-.95,1.38-1.46,2l-.22.29c-.5.64-1,1.27-1.56,1.89-.13.16-.25.29-.39.44s-.5.55-.74.81l-1,1.12c-.06,0-.09.1-.15.15-.72.73-1.47,1.44-2.24,2.1-.3.28-.62.52-.94.78-.53.42-1,.86-1.57,1.27s-1.26.92-1.9,1.38l-.51.33-.59.38-1.27.8-.91.53v0l-.55.28c-.69.38-1.37.76-2.09,1.09-.25.14-.51.25-.77.37-.63.28-1.26.57-1.89.84-.33.14-.68.26-1,.4-.57.21-1.15.44-1.74.63-.41.14-.8.26-1.21.38s-1.07.35-1.62.49l-.38.09-.1,0c-.72.2-1.44.36-2.18.5l-.22.06-1.39.26c-.54.09-1.09.19-1.65.27-.2,0-.41,0-.62.07-.76.1-1.51.17-2.29.23l-.71.05c-.65,0-1.33.06-2,.06H59.3c-.21,0-.44,0-.66,0-.56,0-1.12,0-1.69,0s-1.15-.06-1.71-.1a.82.82,0,0,1-.22,0h-.31l-.22,0-1.14-.11-.74-.08c-.41,0-.82-.13-1.24-.19-.12,0-.25-.05-.38-.06a.82.82,0,0,0-.21,0l-1.12-.19c-.55-.1-1.08-.24-1.61-.36l-.48-.12h-.06c-.25-.08-.5-.12-.75-.18-.72-.18-1.43-.41-2.13-.62l-.67-.21h0c-.63-.22-1.27-.46-1.89-.7a1.27,1.27,0,0,1-.18-.06s0,0,0,0a2.84,2.84,0,0,1-.38-.13l-.3-.11-1.09-.47a.59.59,0,0,0-.14-.06,1.33,1.33,0,0,0-.12-.06,1.34,1.34,0,0,1-.12-.06,4.4,4.4,0,0,0-.5-.21,5.46,5.46,0,0,1-.6-.27.24.24,0,0,1-.12-.07c-.87-.4-1.72-.84-2.55-1.3l-.09,0L35.69,99c-.21-.12-.43-.27-.65-.39-.74-.43-1.47-.88-2.18-1.37A41.83,41.83,0,0,1,29,94.43c-.57-.47-1.15-1-1.72-1.5h0c-.56-.5-1.1-1-1.63-1.58,0,0,0,0-.06,0a46.32,46.32,0,0,1-8.71-12s0,0,0,0c-.23-.44-.44-.88-.65-1.33-.56-1.21-1.08-2.46-1.53-3.73-.38-1-.73-2.12-1-3.19A46.79,46.79,0,0,1,25.52,25.06,48.28,48.28,0,0,1,30.27,21l.19-.15c.72-.55,1.46-1.06,2.21-1.56.24-.17.48-.32.72-.47.65-.44,1.34-.85,2-1.24a1.35,1.35,0,0,1,.22-.14h0s.08-.06.13-.06c.75-.44,1.54-.84,2.33-1.24l.22-.13a.07.07,0,0,0,.06,0h0c.1,0,.17-.09.26-.13a1.2,1.2,0,0,0,.23-.11.67.67,0,0,0,.18-.07h0l.91-.41.21-.09.59-.26.1,0a.37.37,0,0,1,.14,0l.09,0s.08,0,.14,0v0l.77-.29c.29-.1.56-.22.84-.31a4.13,4.13,0,0,1,.42-.14c.29-.11.59-.2.88-.29s.48-.16.71-.22l.15-.07c.71-.21,1.43-.4,2.12-.59h.11v0h.07a48,48,0,0,1,8.39-1.27l1.68-.06,1.22,0c.68,0,1.37,0,2,0,.06,0,.11,0,.17,0,.47,0,.92.06,1.37.09a17.16,17.16,0,0,1,1.81.16l.44.05c.6.07,1.19.17,1.8.26a3.12,3.12,0,0,1,.44.09c.45.06.87.15,1.31.22l1.31.29.62.14.16,0,.52.14.17,0,.4.13h0a.42.42,0,0,1,.12,0l.14,0a3.74,3.74,0,0,0,.45.12l.77.23,1.2.41.41.14a2.86,2.86,0,0,1,.41.15l.24.09.26.09a1.36,1.36,0,0,1,.25.11.44.44,0,0,1,.16.06l.42.16a5.65,5.65,0,0,1,.57.23l.58.24.09,0c.09,0,.17.08.26.12l.91.41.24.12a2.87,2.87,0,0,1,.39.2s0,0,.06,0c.38.17.78.36,1.15.55l.1.06h0l.15.09.3.17a2.22,2.22,0,0,1,.38.18l1.25.71.19.14s0,0,0,0h0a.47.47,0,0,1,.09.06l.1,0s0,0,0,0,0,0,0,0l.17.11h0c.33.2.66.41,1,.64a3.58,3.58,0,0,1,.42.25c.52.34,1,.69,1.49,1a2.61,2.61,0,0,0,.27.22.63.63,0,0,1,.12.07l.06.06a0,0,0,0,0,0,0s0,0,0,0q.34.24.69.51c.12.09.24.2.36.31l.07,0a.53.53,0,0,1,.11.09l.17.12a1.42,1.42,0,0,1,.13.12,1.27,1.27,0,0,1,.12.1l.13.1c.12.1.25.21.37.33.53.45,1.06.91,1.58,1.39s1,.88,1.44,1.35c.74.74,1.44,1.51,2.12,2.29a.28.28,0,0,1,.07.09c.08.07.14.16.22.24l.72.83c.37.44.71.9,1,1.35a37.43,37.43,0,0,1,2.63,3.85,11.52,11.52,0,0,1,.7,1.16c.54,1,1.06,1.93,1.54,2.91a.94.94,0,0,1,.06.15c.4.82.76,1.65,1.11,2.5.06.15.14.32.2.48.3.76.57,1.52.83,2.29.06.2.13.38.2.56q.45,1.41.81,2.82h0a5.41,5.41,0,0,1,.12.55c.13.5.25,1,.35,1.51,0,.26.11.53.15.79.08.44.16.86.23,1.3s.09.61.14.91.1.83.15,1.24.07.64.1.94l.1,1.36c0,.28,0,.53.06.81v.13c0,.68,0,1.38,0,2.06q0,1.37-.09,2.73Z"/><path class="cls-2" d="M70.63,12.89c-.43-.11-.86-.23-1.3-.32l.62.14.16,0Z"/><path class="cls-2" d="M94.9,28.5c.37.44.71.9,1,1.35-.58-.74-1.17-1.47-1.77-2.18Z"/><path class="cls-2" d="M96,29.85a37.43,37.43,0,0,1,2.63,3.85A45.12,45.12,0,0,0,96,29.85Z"/><path class="cls-2" d="M73.9,13.89c-.65-.23-1.3-.44-2-.64l.77.23Z"/><path class="cls-2" d="M77.55,15.31l-.35-.15.09,0C77.38,15.22,77.46,15.27,77.55,15.31Z"/><path class="cls-2" d="M80.41,16.69l.15.09-1.41-.71c.38.17.78.36,1.15.55l.1.06Z"/><path class="cls-2" d="M82.49,17.84l.19.14c-.6-.35-1.21-.7-1.82-1a2.22,2.22,0,0,1,.38.18Z"/><path class="cls-2" d="M83.2,18.28c.33.2.66.41,1,.64L82.73,18h0a.47.47,0,0,1,.09.06l.1,0s0,0,0,0,0,0,0,0l.17.11Z"/><path class="cls-2" d="M87.29,21.11c.12.09.24.2.36.31-1.12-.88-2.29-1.72-3.47-2.5a3.58,3.58,0,0,1,.42.25c.52.34,1,.69,1.49,1a2.61,2.61,0,0,0,.27.22.63.63,0,0,1,.12.07l.06.06a0,0,0,0,0,0,0s0,0,0,0Q86.95,20.84,87.29,21.11Z"/><path class="cls-2" d="M88.38,22c.12.1.25.21.37.33l-1.1-.89.07,0a.53.53,0,0,1,.11.09l.17.12a1.42,1.42,0,0,1,.13.12,1.27,1.27,0,0,1,.12.1Z"/><path class="cls-2" d="M93.89,27.34c-.68-.78-1.4-1.53-2.14-2.28-.47-.46-.94-.92-1.42-1.36.48.43,1,.88,1.44,1.35C92.51,25.79,93.21,26.56,93.89,27.34Z"/><path class="cls-2" d="M25.59,91.28a47.57,47.57,0,0,0,10.24,7.79v0L35.69,99c-.21-.12-.43-.27-.65-.39-.74-.43-1.47-.88-2.18-1.37A41.83,41.83,0,0,1,29,94.43c-.57-.47-1.15-1-1.72-1.5h0c-.56-.5-1.1-1-1.63-1.58,0,0,0,0-.06,0a46.32,46.32,0,0,1-8.71-12s0,0,0,0c-.23-.44-.44-.88-.65-1.33-.56-1.21-1.08-2.46-1.53-3.73-.38-1-.73-2.12-1-3.19A46.79,46.79,0,0,1,25.52,25.06,48.28,48.28,0,0,1,30.27,21a50.11,50.11,0,0,0-4.68,4.1,46.84,46.84,0,0,0,0,66.22Z"/><path class="cls-2" d="M39.16,100.75l0,0a5.46,5.46,0,0,1-.6-.27C38.77,100.6,39,100.67,39.16,100.75Z"/><path class="cls-2" d="M40.56,101.37l.6.27-1.09-.47A5,5,0,0,1,40.56,101.37Z"/><path class="cls-3" d="M76.48,39.32l-.12-.12-.08.08.12.12Z"/><path class="cls-3" d="M39.82,75.74l0,0,.11.12,0,0Z"/><path class="cls-3" d="M104.55,67.37v0c0,.29-.12.57-.18.86s-.14.64-.22,1a.57.57,0,0,0,0,.15l-.36,1.37c0,.11-.08.23-.11.35-.12.44-.25.88-.39,1.31s-.24.75-.38,1.13-.29.83-.44,1.24-.33.84-.5,1.24c-.24.6-.5,1.19-.77,1.76s-.42.94-.65,1.41-.38.71-.58,1.06-.42.79-.65,1.18-.39.7-.6,1-.52.83-.79,1.24-.38.59-.58.88c-.46.7-.95,1.38-1.46,2l-.22.29c-.5.64-1,1.27-1.56,1.89-.13.16-.25.29-.39.44s-.5.55-.74.81l-1,1.12c-.06,0-.09.1-.15.15-.72.73-1.47,1.44-2.24,2.1-.3.28-.62.52-.94.78-.53.42-1,.86-1.57,1.27s-1.26.92-1.9,1.38l-.51.33-.59.38-1.27.8-.91.53v0l-.55.28c-.69.38-1.37.76-2.09,1.09-.25.14-.51.25-.77.37-.63.28-1.26.57-1.89.84-.33.14-.68.26-1,.4-.57.21-1.15.44-1.74.63-.41.14-.8.26-1.21.38s-1.07.35-1.62.49l-.38.09-.1,0c-.72.18-1.44.35-2.18.5l-.22.06-2-2-1.34-1.31L41,77a26.1,26.1,0,0,0,4.88,3.65l0,0c.66.36,1.33.68,2,1,.79.32,1.58.67,2.35,1,.5.15,1,.27,1.52.43.31.07.62.18.92.24a19.32,19.32,0,0,0,3.66.63,22.93,22.93,0,0,0,5,0,6,6,0,0,1,.61-.08,25.58,25.58,0,0,0,8.95-2.75l1.1-.61c.42-.26.88-.57,1.29-.85s.57-.36.83-.54c.42-.29.86-.67,1.29-1s.83-.72,1.22-1.09l11,11,1.08-1.07-6.86-6.86-4.15-4.14a26.32,26.32,0,0,0,2.74-3.42,21,21,0,0,0,1.3-2.21,25.91,25.91,0,0,0-4.18-29.82l.08-.07,23.88,23.86v0l.51.5.73.73.09.09Z"/><path class="cls-3" d="M38.62,100.49l.54.26c-.19-.08-.39-.15-.57-.24a.24.24,0,0,1-.12-.07c-.87-.4-1.72-.84-2.55-1.3l-.09,0v0c.85.47,1.7.89,2.56,1.31A1.2,1.2,0,0,1,38.62,100.49Z"/><path class="cls-3" d="M39.69,101a4.4,4.4,0,0,0-.5-.21l0,0Z"/><path class="cls-3" d="M47.51,103.67c-.25-.08-.5-.12-.75-.18-.72-.18-1.43-.41-2.13-.62l-.67-.21.82.22c.79.25,1.59.49,2.39.68Z"/><path class="cls-3" d="M50.78,104.34l-1.12-.19c-.55-.1-1.08-.24-1.61-.36l-.48-.12.77.17c.74.16,1.5.31,2.25.45A.41.41,0,0,1,50.78,104.34Z"/><path class="cls-3" d="M59.3,105c-.21,0-.44,0-.66,0-.56,0-1.12,0-1.69,0,.57,0,1.14,0,1.72,0h.63Z"/><path class="cls-3" d="M54.49,104.81l-1.14-.11-.74-.08c-.41,0-.82-.13-1.24-.19l.41,0c.8.12,1.6.21,2.4.29Z"/><path class="cls-3" d="M41.84,101.88a2.84,2.84,0,0,1-.38-.13l-.3-.11-.6-.27c.16.06.34.12.51.2a.67.67,0,0,0,.18.07A6.07,6.07,0,0,0,41.84,101.88Z"/><path class="cls-4" d="M105.47,58.18q0,1.37-.09,2.73v.18c0,.23,0,.45-.06.7h0c-.06.82-.15,1.65-.26,2.47a2.36,2.36,0,0,1,0,.29c-.06.47-.13.94-.21,1.39,0,.09,0,.2,0,.29-.08.38-.16.75-.23,1.13l-1.79-1.78c0-.25.08-.49.12-.73.11-.77.18-1.5.24-2.26a33,33,0,0,0,.25-3.4c0-.38,0-.75,0-1.09A44.58,44.58,0,0,0,81.88,20l0,0a4.38,4.38,0,0,1-.43-.24,44.6,44.6,0,0,0-11.56-4.8,10.34,10.34,0,0,0-1-.24l-1.12-.26c-.73-.15-1.46-.27-2.2-.39-1.48-.23-3-.38-4.5-.47-.77,0-1.53-.06-2.3-.06h0A44.68,44.68,0,0,0,14,58.09v0a1.7,1.7,0,0,0,0,.22v.25c0,1.45.11,2.87.26,4.27.09.68.13,1.37.24,2s.26,1.52.41,2.23.3,1.44.48,2.14c.06.19.13.42.19.63s.13.47.19.71l.23.79a44.41,44.41,0,0,0,8.19,15.08s0,0,0,0c.9,1.06,1.83,2.12,2.83,3.1,0,0,0,0,0,0,1,1,2.06,2,3.18,2.88.42.35.89.68,1.33,1s1.18.89,1.8,1.32,1.37.94,2.08,1.37,1.3.76,1.94,1.09,1.24.69,1.86,1c.36.17.71.33,1.07.48,1.05.46,2,.85,3,1.22a1.43,1.43,0,0,1,.27.09c1.08.37,2.18.72,3.27,1l.43.1c1.17.32,2.36.58,3.56.79l.12,0a43.44,43.44,0,0,0,7.72.67,44.5,44.5,0,0,0,6.44-.5c.3,0,.62-.09.91-.16l2,2-1.39.26c-.54.09-1.09.19-1.65.27-.2,0-.41,0-.62.07-.76.1-1.51.17-2.29.23l-.71.05c-.65,0-1.33.06-2,.06h-.72c-.58,0-1.15,0-1.72,0l-1.71-.1a.82.82,0,0,1-.22,0h-.31l-.22,0-.31,0c-.8-.08-1.6-.17-2.4-.29l-.41,0c-.12,0-.25-.05-.38-.06a.82.82,0,0,0-.21,0,.41.41,0,0,0-.19,0c-.75-.14-1.51-.29-2.25-.45l-.77-.17h-.06l-.34-.11c-.8-.19-1.6-.43-2.39-.68l-.82-.22h0c-.63-.23-1.27-.46-1.89-.7a1.27,1.27,0,0,1-.18-.06s0,0,0,0a6.07,6.07,0,0,1-.59-.24.67.67,0,0,1-.18-.07c-.17-.08-.35-.14-.51-.2a5,5,0,0,0-.49-.2.59.59,0,0,0-.14-.06,1.33,1.33,0,0,0-.12-.06,1.34,1.34,0,0,1-.12-.06l-.53-.24-.54-.26a1.2,1.2,0,0,0-.23-.11c-.86-.42-1.71-.84-2.56-1.31a47.57,47.57,0,0,1-10.24-7.79,46.84,46.84,0,0,1,0-66.22A50.11,50.11,0,0,1,30.27,21l.19-.15c.72-.55,1.46-1.06,2.21-1.56.24-.17.48-.32.72-.47.65-.44,1.34-.85,2-1.24a1.35,1.35,0,0,1,.22-.14h0s.08-.06.13-.06c.75-.44,1.54-.84,2.33-1.24l.22-.13a.07.07,0,0,0,.06,0h0c.1,0,.17-.09.26-.13a1.2,1.2,0,0,0,.23-.11.67.67,0,0,0,.18-.07h0l.91-.41.21-.09.59-.26.1,0a.37.37,0,0,1,.14,0l.09,0s.08,0,.14,0v0l.77-.29c.29-.1.56-.22.84-.31a4.13,4.13,0,0,1,.42-.14c.29-.11.59-.2.88-.29s.48-.16.71-.22l.15-.07c.71-.21,1.43-.4,2.12-.59h.11v0h.07a48,48,0,0,1,8.39-1.27l1.68-.06,1.22,0c.68,0,1.37,0,2,0,.06,0,.11,0,.17,0,.47,0,.92.06,1.37.09a17.16,17.16,0,0,1,1.81.16l.44.05c.6.07,1.19.17,1.8.26a3.12,3.12,0,0,1,.44.09c.45.06.87.15,1.31.22l1.31.29c.44.09.87.21,1.3.32l.17,0,.4.13h0a.42.42,0,0,1,.12,0l.14,0a3.74,3.74,0,0,0,.45.12c.67.2,1.32.41,2,.64l.41.14a2.86,2.86,0,0,1,.41.15l.24.09.26.09a1.36,1.36,0,0,1,.25.11.44.44,0,0,1,.16.06l.42.16.57.23.58.24.35.15.91.41.24.12a2.87,2.87,0,0,1,.39.2s0,0,.06,0l1.41.71.3.17c.61.33,1.22.68,1.82,1,0,0,0,0,0,0l1.45.91c1.18.78,2.35,1.62,3.47,2.5l1.1.89c.53.45,1.06.91,1.58,1.39s1,.9,1.42,1.36c.74.75,1.46,1.5,2.14,2.28a.28.28,0,0,1,.07.09c.08.07.14.16.22.24.6.71,1.19,1.44,1.77,2.18a45.12,45.12,0,0,1,2.63,3.85l.7,1.16c.54,1,1.06,1.93,1.54,2.91a.94.94,0,0,1,.06.15c.4.82.76,1.65,1.11,2.5.06.15.14.32.2.48.3.76.57,1.52.83,2.29.06.2.13.38.2.56q.45,1.41.81,2.82h0a5.41,5.41,0,0,1,.12.55c.13.5.25,1,.35,1.51,0,.26.11.53.15.79.08.44.16.86.23,1.3s.09.61.14.91.1.83.15,1.24.07.64.1.94l.1,1.36c0,.28,0,.53.06.81v.13C105.46,56.8,105.47,57.5,105.47,58.18Z"/><path class="cls-2" d="M64.72,100.71a39,39,0,0,1-6,.47,43.47,43.47,0,0,1-14.86-2.62c-1.3-.49-2.61-1-3.88-1.64s-2.48-1.29-3.69-2a46.8,46.8,0,0,1-5-3.57A43.3,43.3,0,0,1,17.49,70.91c-.22-.67-.4-1.37-.59-2.06a44.53,44.53,0,0,1-1.36-10.74,43.17,43.17,0,0,1,86.33,0,44,44,0,0,1-.44,6.15l.51.51h0l.73.73.09.09c0-.25.08-.49.12-.73.11-.77.19-1.51.25-2.26.13-1.15.21-2.29.24-3.4,0-.38,0-.74,0-1.09A44.6,44.6,0,0,0,81.89,20l0,0-.44-.25a44.77,44.77,0,0,0-11.56-4.81c-.35-.09-.69-.16-1.05-.23s-.74-.18-1.11-.26c-.73-.15-1.46-.28-2.19-.4-1.49-.22-3-.37-4.51-.46-.76,0-1.52-.06-2.29-.06h0A44.69,44.69,0,0,0,14,58.1h0a1.7,1.7,0,0,0,0,.22,2,2,0,0,1,0,.25,42.55,42.55,0,0,0,.26,4.26c.09.68.14,1.38.24,2s.25,1.52.4,2.23.31,1.45.5,2.14c.06.19.11.42.18.63s.13.48.19.71.15.51.24.79a44.11,44.11,0,0,0,8.19,15.09.05.05,0,0,1,0,0c.89,1.06,1.83,2.11,2.83,3.11l0,0c1,1,2.06,2,3.18,2.88.43.34.89.67,1.33,1s1.18.88,1.8,1.31,1.36.93,2.08,1.37,1.3.76,1.93,1.1,1.25.67,1.86,1l1.08.48c1,.46,2,.86,3,1.21l.27.1c1.08.37,2.18.73,3.27,1l.43.1c1.17.31,2.36.58,3.56.8l.13,0a43.29,43.29,0,0,0,14.15.17c.3,0,.61-.1.9-.15Z"/><path class="cls-4" d="M101.87,58.11a43.17,43.17,0,0,0-86.33,0A44.53,44.53,0,0,0,16.9,68.85c.19.69.37,1.39.59,2.06A43.3,43.3,0,0,0,31.24,91.34a46.8,46.8,0,0,0,5,3.57c1.21.72,2.46,1.4,3.69,2s2.58,1.15,3.88,1.64a43.47,43.47,0,0,0,14.86,2.62,39,39,0,0,0,6-.47L41,77l-5.28,5.29L30,88l-1.07-1.07,6.79-6.79,4.22-4.23-.11-.12,0,0a25,25,0,0,1-3-3.89c-.24-.38-.49-.73-.7-1.14s-.6-1.08-.88-1.65c-.32-.8-.66-1.58-1-2.35-.1-.31-.17-.65-.25-1a14.6,14.6,0,0,1-.43-1.47A22.88,22.88,0,0,1,33,60.6a29.42,29.42,0,0,1-.12-3.26c0-.56.05-1.14.1-1.69a26.85,26.85,0,0,1,2.84-9.54,5,5,0,0,0,.26-.53l0,0a3.72,3.72,0,0,0,.32-.56l.49-.76c.31-.47.58-.91.9-1.37.12-.15.22-.25.3-.37a24.63,24.63,0,0,1,1.82-2.13l-11-11L30,28.25,41,39.31a25.32,25.32,0,0,1,3.81-3,25.87,25.87,0,0,1,28.1.3,22.74,22.74,0,0,1,3.35,2.66l.08-.08.12.12L87.54,28.25l1.07,1.08L77.55,40.39l23.88,23.87A44,44,0,0,0,101.87,58.11Z"/><path d="M41,39.31,30,28.25l-1.07,1.08,11,11c.15-.15.29-.32.45-.48S40.81,39.51,41,39.31Z"/><path d="M76.56,77l5.2,5.19L87.54,88l1.07-1.07-6.86-6.86-4.13-4.14c-.2.21-.37.43-.58.64Z"/><path d="M87.54,28.25,76.48,39.32h0l-.08.08c.2.18.4.34.59.54s.32.35.49.52l.07-.07L88.61,29.33Z"/><path d="M39.93,75.86l0,0-4.22,4.23-6.79,6.79L30,88l5.73-5.73L41,77h0l-.52-.49C40.27,76.27,40.12,76.06,39.93,75.86Z"/><path class="cls-5" d="M76.4,39.4l-.12-.12a22.74,22.74,0,0,0-3.35-2.66,25.87,25.87,0,0,0-28.1-.3,25.32,25.32,0,0,0-3.81,3c-.21.2-.44.37-.64.57s-.3.33-.45.48a24.63,24.63,0,0,0-1.82,2.13c-.08.12-.18.22-.3.37-.32.46-.59.9-.9,1.37l-.49.76a3.72,3.72,0,0,1-.32.56l0,0a5,5,0,0,1-.26.53A26.85,26.85,0,0,0,33,55.65c0,.55-.08,1.13-.1,1.69A29.42,29.42,0,0,0,33,60.6a22.88,22.88,0,0,0,.62,3.67A14.6,14.6,0,0,0,34,65.74c.08.32.15.66.25,1,.3.77.64,1.55,1,2.35.28.57.6,1.1.88,1.65s.46.76.7,1.14a25,25,0,0,0,3,3.89l.11.12c.19.2.34.41.53.6L41,77a26,26,0,0,0,4.88,3.66l0,0c.66.36,1.32.68,2,1l2.35,1c.49.15,1,.27,1.51.42.32.09.62.19.93.26a20.1,20.1,0,0,0,3.67.62,22.75,22.75,0,0,0,4.95,0c.22,0,.41-.07.61-.07a26,26,0,0,0,8.95-2.76l1.11-.6c.43-.26.88-.58,1.29-.85.25-.15.57-.37.83-.56.42-.29.86-.66,1.28-1s.84-.72,1.23-1.09l.48-.45c.21-.21.38-.43.58-.64a28.31,28.31,0,0,0,2.74-3.42c.45-.69.89-1.44,1.3-2.22a26,26,0,0,0-4.18-29.81c-.17-.17-.32-.35-.49-.52S76.6,39.58,76.4,39.4Zm-2,34.47a22.2,22.2,0,0,1-2.57,2.19c-.58.44-1.22.84-1.84,1.22l-.94.52a22,22,0,0,1-8.2,2.43,23.1,23.1,0,0,1-4.24,0,18.76,18.76,0,0,1-3.13-.52,15.47,15.47,0,0,1-2.07-.61,17.37,17.37,0,0,1-2-.83,21.57,21.57,0,0,1-6.35-4.4,22,22,0,0,1-4.43-6.37c-.29-.65-.57-1.31-.8-2a16.94,16.94,0,0,1-.61-2.06,16.08,16.08,0,0,1-.53-3.15,21.45,21.45,0,0,1,0-4.24,21.75,21.75,0,0,1,2.45-8.18c.14-.32.33-.65.5-1,.37-.64.8-1.25,1.22-1.84A22.17,22.17,0,1,1,74.4,73.87Z"/><path class="cls-3" d="M43.05,42.53a22.1,22.1,0,0,0-2.2,2.55c-.42.59-.85,1.2-1.22,1.84-.17.31-.36.64-.5,1a21.75,21.75,0,0,0-2.45,8.18,21.45,21.45,0,0,0,0,4.24,16.08,16.08,0,0,0,.53,3.15,16.94,16.94,0,0,0,.61,2.06c.23.68.51,1.34.8,2a22,22,0,0,0,4.43,6.37,21.57,21.57,0,0,0,6.35,4.4,17.37,17.37,0,0,0,2,.83,15.47,15.47,0,0,0,2.07.61,18.76,18.76,0,0,0,3.13.52,23.1,23.1,0,0,0,4.24,0,22,22,0,0,0,8.2-2.43l.94-.52c.62-.38,1.26-.78,1.84-1.22A22.16,22.16,0,1,0,43.05,42.53ZM70.33,69.81a16.26,16.26,0,0,1-1.9,1.62c-.43.32-.9.61-1.36.9l-.7.38a16.26,16.26,0,0,1-6.07,1.81,17.33,17.33,0,0,1-3.14,0,14.4,14.4,0,0,1-2.32-.39,12.33,12.33,0,0,1-1.53-.45,14.67,14.67,0,0,1-1.49-.62,16,16,0,0,1-4.7-3.25,16.35,16.35,0,0,1-3.28-4.73,12.37,12.37,0,0,1-.59-1.46,11.23,11.23,0,0,1-.45-1.53,11.6,11.6,0,0,1-.4-2.33,15,15,0,0,1,0-3.14,16.16,16.16,0,0,1,1.81-6.06c.1-.24.25-.48.37-.71.28-.48.6-.93.91-1.37a15.34,15.34,0,0,1,1.63-1.89A16.42,16.42,0,0,1,70.33,69.81Z"/><path class="cls-2" d="M47.12,46.59a15.34,15.34,0,0,0-1.63,1.89c-.31.44-.63.89-.91,1.37-.12.23-.27.47-.37.71a16.16,16.16,0,0,0-1.81,6.06,15,15,0,0,0,0,3.14,11.6,11.6,0,0,0,.4,2.33,11.23,11.23,0,0,0,.45,1.53,12.37,12.37,0,0,0,.59,1.46,16.35,16.35,0,0,0,3.28,4.73,16,16,0,0,0,4.7,3.25,14.67,14.67,0,0,0,1.49.62,12.33,12.33,0,0,0,1.53.45,14.4,14.4,0,0,0,2.32.39,17.33,17.33,0,0,0,3.14,0,16.26,16.26,0,0,0,6.07-1.81l.7-.38c.46-.29.93-.58,1.36-.9A16.41,16.41,0,1,0,47.12,46.59ZM68.39,67.86a14.55,14.55,0,0,1-1.59,1.35c-.35.26-.75.51-1.13.75-.2.1-.4.22-.58.32A13.63,13.63,0,0,1,60,71.78a15.17,15.17,0,0,1-2.61,0,11.12,11.12,0,0,1-1.93-.33,8.85,8.85,0,0,1-1.27-.37A11.14,11.14,0,0,1,53,70.57a13.41,13.41,0,0,1-6.64-6.64c-.18-.4-.35-.81-.49-1.22a10.53,10.53,0,0,1-.38-1.28,9.72,9.72,0,0,1-.33-1.94,12.65,12.65,0,0,1,0-2.61,13.36,13.36,0,0,1,1.51-5,5.58,5.58,0,0,1,.31-.59,12.45,12.45,0,0,1,.75-1.14,14.44,14.44,0,0,1,1.36-1.57A13.66,13.66,0,0,1,68.39,67.86Z"/><path class="cls-6" d="M49.07,48.54a14.44,14.44,0,0,0-1.36,1.57A12.45,12.45,0,0,0,47,51.25a5.58,5.58,0,0,0-.31.59,13.36,13.36,0,0,0-1.51,5,12.65,12.65,0,0,0,0,2.61,9.72,9.72,0,0,0,.33,1.94,10.53,10.53,0,0,0,.38,1.28c.14.41.31.82.49,1.22A13.41,13.41,0,0,0,53,70.57a11.14,11.14,0,0,0,1.24.51,8.85,8.85,0,0,0,1.27.37,11.12,11.12,0,0,0,1.93.33,15.17,15.17,0,0,0,2.61,0,13.63,13.63,0,0,0,5.06-1.5c.18-.1.38-.22.58-.32.38-.24.78-.49,1.13-.75a14.55,14.55,0,0,0,1.59-1.35A13.66,13.66,0,0,0,49.07,48.54Z"/></g></svg>